<svg version="1.1" id="new_x5F_layer" xmlns="http://www.w3.org/2000/svg" x="0" y="0" viewBox="0 0 800 800" xml:space="preserve"><style>.st0{fill:#19121d}.st1{fill:#261e2b}.st2{fill:#ffc7a5}.st7{fill:#8e4637}.st8{fill:#d9e9e6}.st9{fill:#c1d9d5}.st10{fill:#a24f3e}.st11{fill:#fff}.st12{fill:#8f564a}.st13{fill:#965549}.st14{fill:#e3956f}.st15{fill:#3a2c4c}.st16{fill:#bd4b9d}.st18{fill:#97267c}.st20{fill:#993679}.st23{fill:#af3079}.st28{fill:#702962}.st30{fill:#ea4aaa}.st31{fill:#ab2b78}.st33{fill:#f692ce}.st34{fill:#21172e}.st35{fill:#a4c4c6}.st36{fill:#536e6e}</style><path class="st0" d="M532.1 13.1C519.4 11.7 495.2 27 479 38.5c22.7 17.3 55.5 41.4 71.5 53.3 0-18.3-1.3-76.8-18.4-78.7z"/><path class="st1" d="M555.9 33.3C546.5 24.1 543 6.8 527 8.4c-22.6 2.7-44.6 9.1-64.8 18.8 4.2 3.3 10.1 7.8 16.8 13 15.7-11.2 39.1-26 51.4-24.6 16.5 1.9 17.8 58.5 17.8 76.1 5.8 4.3 9.3 6.9 9.3 6.9 2.7-26 3.2-47.9-1.6-65.3z"/><path class="st0" d="M245.3 11.7c-14.1 13.6-5.1 76-4.2 82.1l102.3-55.1c-19.2-9.1-85.5-39.2-98.1-27zM555.9 33.3c-2.6-9.5-6.7-17.6-12.8-24.4-1.6-1.7-3.7-2.9-6-3.2-22.3-3.1-55.9 9.7-83.1 17.8-.4.1 3.6.1 8.1 3.8 20.7-5 42.3-13.5 64.9-16.1 16.1-1.7 17.8 15.5 28.9 22.1z"/><path class="st1" d="M624.7 253.9c-.3-1.4-2.6-3.3-4.6-3.6-31-4.3-62.8 8.4-63.9 8.4l3 .8 2.3.6c33.1-3.2 56.9.1 56.9.1 4.4.2 6.9-3.2 6.3-6.3zM556.2 258.8zM567 281.2l-1.3 5.3-.7 2.9c14.8-3.5 49.7 10.4 49.7 10.4l1.8-4.8 1.2-3.2c-15.9-11.1-50.7-10.6-50.7-10.6z"/><path class="st0" d="M610.8 256.6c-17.3-.7-35.1-2-51.6 3l2.3.6c33.1-3.2 56.9.1 56.9.1 4.4 0 6.8-3.4 6.3-6.4-1.7 2.8-10.9 2.7-13.9 2.7z"/><path class="st1" d="M610.8 256.6c3 0 12.2.1 13.9-2.7-.3-1.4-2.6-3.3-4.6-3.6-31.6-4.3-64.1 8.9-64 8.4l3 .8c16.6-4.8 34.4-3.6 51.7-2.9z"/><path class="st0" d="M565.7 286.5l-.7 2.9c14.8-3.5 49.7 10.4 49.7 10.4l1.8-4.8c-17.1-1.3-33.5-8.8-50.8-8.5z"/><path class="st1" d="M567 281.2l-1.3 5.3c17.2-.3 33.7 7.2 50.9 8.6l1.2-3.2c-16-11.2-50.8-10.7-50.8-10.7z"/><path class="st1" d="M263.8 380.6c-49.9-31.1-86.7-109.1-86.7-175.1 0-123.9 80.4-189.8 194.8-192.3 78.6-1.7 207.4 32.3 197.8 140.4-2 22.6-4.3 54.8-7.5 77.3 0 0 37 50.2 1.5 90.6-35.5 40.4-66.5 47.7-112.4 63.3-45.8 15.6-135.6 28.1-187.5-4.2z"/><path class="st2" d="M548 324.2c-4.4 2.9-8.7 5.6-13.1 8-30.8 16.4-62.4 21.4-97.1 22.7-17.6 0-34.9-1-52.4-2.4-8.6-.8-17.4-1.6-25.9-2.5-34.6-3.8-65.7-16.1-92.1-38.6-1.7-1.5-3.4-3.2-4.9-4.8-10.8-11.9-16.3-23.8-17.2-39.7-5.5 17.9-1.6 34.8 6.8 51 9.8 15.8 24.9 26.5 40.6 35.3 29.1 16.3 59.9 42 94.5 27.1.9-.4 1.9-.8 2.8-1.2 14.2-5.8 28.5-10.9 43.9-11.6 13.2-.7 26.5.1 39.7.9 25.6 1.6 46.8-12.1 66.2-27.1 1.9-1.5 3.8-3 5.6-4.5 15.5-12.9 28.8-26.2 32-47.1-4.9 15.4-16.1 25.7-29.4 34.5z"/><path d="M570.9 246.8c-3.7-6.5-9.6-12.3-12.2-19.4-9.6-11-20.4-30.1-34.9-31.9-21.2-2.7-46.9-1.7-65.8 11.5-6.7-3.8-15.9-3.5-23.5-4.2-17.8-1.6-36.5.4-54.1 3.7-25.3-18.2-63.9-12.2-91.8-6.8-11.3 2.2-22.4 13.7-33.2 18.5 1 14-.5 25-5.9 37.5-1.4 3.2-3 7-4.2 11.1.9 15.9 6.3 32.2 17 44.1 1.5 1.7 3.1 3.3 4.9 4.8 26.4 22.5 57.4 34.8 92.1 38.6 8.5.9 17.3 1.7 25.9 2.5 17.5 1.5 34.9 2.5 52.4 2.4 34.7-1.3 66.3-8.4 97.1-24.8 4.4-2.5 8.7-5.2 13.1-8 13.3-8.8 24.7-21.5 29.6-36.9.1-.8.3-1.7.4-2.5 1.8-14.1.2-27.6-6.9-40.2z" fill="#ffd2ad"/><path class="st0" d="M220.6 283.4c.7-.3 1.2-.7 1.5-1 1.1-1.2-.4-2.3-1.4-2.7 0 0-33.5-13.4-74.5-5.4 0 0-.9.1-2.2.5-3.7 1.1-10.3 4.1-8.3 11.3 3.4 12.6 17.3-8.5 84.9-2.7zM222.1 299.9s-48.5-.5-70.9 10.7c0 0-1.1.4-2.4 1.2-1.9 1.3-4.1 3.6-2.7 7.2 2.4 6 9.8 3.3 9.8 3.3s43-16.1 66.5-16.1c0 0 .5-1.7.5-3.5.1-1-.1-2.1-.8-2.8z"/><path class="st0" d="M144 282.1c-4.7-.5-3.1-4.4 0-7.3-3.7 1.1-10.3 4.1-8.3 11.3 3.5 12.5 17.4-8.5 85-2.7.7-.3 1.2-.7 1.5-1-25.3-7.6-52.5.5-78.2-.3z"/><path class="st1" d="M144 282.1c25.7.8 52.9-7.3 78.1.3 1.1-1.2-.4-2.3-1.4-2.7 0 0-33.5-13.4-74.5-5.4 0 0-.9.1-2.2.5-3.1 2.9-4.7 6.8 0 7.3zM157.9 317.5c21.1-7.7 42.8-16.1 65.1-14.7 0-1.1-.2-2.2-.9-2.8 0 0-48.5-.5-70.9 10.7 0 0-1.1.4-2.4 1.2-1.5 4.7 5.1 6.4 9.1 5.6z"/><path class="st0" d="M157.9 317.5c-4.1.8-10.6-.8-9.1-5.7-1.9 1.3-4.1 3.6-2.7 7.2 2.4 6 9.8 3.3 9.8 3.3s43-16.1 66.5-16.1c0 0 .5-1.7.5-3.5-22.2-1.3-43.9 7-65 14.8z"/><path d="M432.9 243.6c-21.1.5-54.9-15.3-54.9-15.3 3.3 21.5 7.8 42.4 13.9 57.3 24-4.9 50.4.4 69 14.6 5.4-14.4 10.2-36.6 16.8-65.7-.1.1-19.7 8.5-44.8 9.1z" fill="#4f1f3b"/><path d="M391.9 285.7c9.6 23.6 23.7 37.6 45.4 38.4 10.4.4 17.3-7.1 23.6-23.8-10.3-23.2-35-28.2-69-14.6z" fill="#d1546f"/><path class="st0" d="M205.3 101c-6.5 15.8-42.5 85.9-11.1 176.1s32.9 62.3 41.2 61.8c8.3-.5-5.9-56.4-3.4-75 2.5-18.6-43.4-85-2.9-142.7 28.7-41 80.3-94.8 74.6-97.7-9.6-4.9-87.8 51.6-98.4 77.5z"/><path class="st0" d="M252.5 6c1.8-.7 3.7-1.3 5.5-1.8-3.9-.2-7.4-.1-10.3.2-3.5.4-7 1.9-10 4.4-23.1 19.6-26.8 51.3-30.8 102.9l18.5-10c4.9-34.7-13.1-80 27.1-95.7z"/><path class="st2" d="M380.5 214.7s30.1-5.9 54.1-3.7c23.9 2.3 23.4 4.8 23.4 4.8s22.5-17.5 65.9-12.1c13.1 1.6 25.4 12.6 35.4 25.1 0-.2-.5-1.9-.5-2.1 10.4-74.5 1.5-105.8-12.1-125.5s-50.8-12-69-4.9c-11 4.3-33.6 16.4-118.4-8.2C266 61 228.2 144 243.4 179.7c6.6 15.6 10.6 27.8 12.1 38.5 9.1-4.1 20.4-8.1 33.2-10.3 32.9-5.6 69.8-9.2 91.8 6.8z"/><path class="st1" d="M258 4.2c-1.8.5-5.2.6-7 1.3-40.2 15.8-25.5 61.6-30.5 96.5 8.2-1.2 18-3.7 22.3-9.6-.9-5.9-9.6-66.3 4-79.4 12.2-11.8 76.3 17.3 95 26.1l14.8-7.9c-39.5-17-76.1-26-98.6-27z"/><path d="M420.9 213.8c4.1 2.5 24.6 2.8 26.5.7 0 0-2-8.1-12.5-8.1s-14.5 7.1-14 7.4z" fill="#a24f3e" stroke="#8e4637" stroke-width="1.644" stroke-linecap="round" stroke-linejoin="round" stroke-miterlimit="10"/><path class="st7" d="M474.4 175.4c-7.9-3.1-16.6 4.6-19.3 17.2-1.8 8.4-.5 16.8 2.9 22.4.3-.2.6-.4.8-.6l.9-.6c4.9-3.3 11.4-5.6 20.9-6.9.4-.1.9-.1 1.3-.2s.8-.1 1.3-.1c.3-.9.5-1.8.7-2.8 2.7-12.6-1.5-25.3-9.5-28.4z"/><path class="st8" d="M489.1 138.9c-12-4-26.1 11-31.4 33.4-1.5 6.3-2.1 12.5-2 18.3.1 5 .8 9.6 1.9 13.7 1 3.5 2.3 6.6 4 9.1 6.9-4.6 16.9-7.7 33-9.2 1.1-2 2.1-4.1 3.1-6.4 1.4-3.4 2.6-7.1 3.6-11.1.9-3.6 1.4-7.2 1.7-10.7 1.7-18.2-3.8-33.7-13.9-37.1z"/><path class="st9" d="M488.4 143.6c9 2.7 12.9 18.7 14.6 32.4 1.6-18.2-3.8-33.8-13.9-37.1-12-4-26.1 11-31.4 33.4-1.5 6.3-2.1 12.6-2 18.3 5.5-19.6 17-51.6 32.7-47z"/><path class="st8" d="M488.5 143.6c-15.7-4.7-27.2 27.4-32.7 47 .1 5 .8 9.6 1.9 13.7 1 3.5 2.3 6.6 4 9.1 6.9-4.6 16.9-7.7 33-9.2 1.1-2 2.1-4.1 3.1-6.4 1.4-3.4 2.6-7.1 3.6-11.1.9-3.6 1.4-7.2 1.7-10.7-1.8-13.7-5.7-29.7-14.6-32.4z"/><path class="st10" d="M481.7 202.9c2.4-11.3-1-22.6-7.8-25.2-.9-.3-1.7-.5-2.6-.5-5.9-.2-11.9 6.4-14 16.3-1.7 7.7-.6 15.4 2.4 20.3 4.9-3.3 11.4-5.6 20.9-6.9.4-1.3.8-2.6 1.1-4z"/><path class="st7" d="M474.4 175.4c-7.9-3.1-16.6 4.6-19.3 17.2-1.8 8.4-.5 16.8 2.9 22.4.3-.2.6-.4.8-.6l.9-.6c-3-5-4.1-12.6-2.4-20.3 2.1-9.8 8.1-16.5 14-16.3.9 0 1.8.2 2.6.5 6.7 2.6 10.2 13.9 7.8 25.2-.3 1.4-.7 2.7-1.1 4 .4-.1.9-.1 1.3-.2s.8-.1 1.3-.1c.3-.9.5-1.8.7-2.8 2.7-12.6-1.5-25.3-9.5-28.4z"/><path class="st11" d="M470.4 177.6c-.4-2.7-1.4-5.8-4.4-6.5-2.4-.6-3.7 1.4-3.4 3.3-.5 1.4-.8 2.7-.5 4.4.5 2.5 2.6 5.1 5.3 4.8 3-.4 3.4-3.5 3-6z"/><path class="st12" d="M502.9 179.9c.2-6.6.1-13.3-.9-19.7-.5-3.2-1.2-6.4-2.4-9.3-1.1-3-2.7-5.7-4.9-7.8-1.1-1-2.3-1.9-3.6-2.4-1.3-.6-2.8-.9-4.3-.9s-2.9.1-4.4.5c-1.5.4-2.9 1-4.2 1.7-2.7 1.5-5.2 3.5-7.5 5.7-2.3 2.3-4.4 4.8-6.5 7.4 1.2-3.1 2.9-6.1 4.9-8.8 2-2.7 4.6-5.2 7.6-7 3-1.8 6.6-3 10.3-2.8 1.8.1 3.7.5 5.4 1.3 1.7.8 3.2 1.8 4.5 3.1 2.6 2.6 4.2 5.8 5.3 9.1 1.1 3.3 1.7 6.6 1.9 10 .5 6.7 0 13.4-1.2 19.9z"/><path class="st8" d="M381.5 172.3c-.2-1.1-.5-2.2-.8-3.3-5.6-22.4-20.5-37.7-34.4-34.7-14.5 3.2-22.4 25.4-17.5 49.6.1.4.2.7.2 1.1 1.4 6.3 3.5 12.1 6.1 17.2 17.4.2 29.9 2.7 41.7 9.6 5.8-9.4 7.8-24 4.7-39.5z"/><path class="st9" d="M350.7 139.4c14.9 2.1 24.3 16.3 30.1 29.6-5.6-22.4-20.5-37.7-34.4-34.7-14.5 3.2-22.4 25.4-17.5 49.6.1.4.2.7.2 1.1.5-19 4.1-48.1 21.6-45.6z"/><path class="st8" d="M380.8 169c-5.8-13.4-15.2-27.6-30.1-29.6-17.5-2.4-21.1 26.6-21.6 45.6 1.4 6.3 3.5 12.1 6.1 17.2 17.4.2 29.9 2.7 41.7 9.6 5.7-9.4 7.7-24 4.6-39.4-.2-1.2-.4-2.3-.7-3.4z"/><path class="st7" d="M379.1 194.9c-1.6-6.6-5.2-12.3-10.1-16.1-4.9-3.8-10.6-5.2-16-3.9-5.4 1.3-9.8 5.2-12.4 10.9-2.3 5-3 11-1.9 16.9h2.6c14 .6 24.5 3 34.6 8.7.4.2.7.4 1.1.6.4.2.7.4 1.1.6 2-5 2.6-11.3 1-17.7z"/><path class="st10" d="M376.7 195.5c-1.5-6-4.7-11.3-9.2-14.7-3.3-2.5-6.9-3.9-10.5-3.9-1.2 0-2.3.1-3.4.4-4.6 1.1-8.5 4.5-10.8 9.5-2.2 4.7-2.7 10.4-1.6 16 14 .6 24.5 3 34.6 8.7 1.9-4.6 2.3-10.3.9-16z"/><path class="st7" d="M379.1 194.9c-1.6-6.6-5.2-12.3-10.1-16.1-4.9-3.8-10.6-5.2-16-3.9-5.4 1.3-9.8 5.2-12.4 10.9-2.3 5-3 11-1.9 16.9h2.6c-1.1-5.6-.6-11.3 1.6-16 2.3-5 6.1-8.4 10.8-9.5 1.1-.3 2.3-.4 3.4-.4 3.6 0 7.2 1.3 10.5 3.9 4.4 3.4 7.7 8.6 9.2 14.7 1.4 5.8 1 11.4-.8 16.1.4.2.7.4 1.1.6.4.2.7.4 1.1.6 1.9-5.1 2.5-11.4.9-17.8z"/><path class="st11" d="M343.9 168.5c-5.6.9-6.1 9.2-2.2 12.4.1.1.3.2.4.3.1.2.2.4.3.5 1.2 1.8 3.5 2.8 5.6 2.1 2.5-.8 3.7-3.3 3.8-5.8.2-4.3-2.7-10.4-7.9-9.5z"/><path class="st12" d="M375.9 155.8c-2-3.6-4.2-7-6.9-10s-5.7-5.6-9.2-7.4c-1.7-.9-3.5-1.6-5.4-2-1.9-.4-3.7-.5-5.6-.2-3.7.5-7.1 2.5-9.7 5.3-2.7 2.7-4.7 6.2-6.2 9.8-1.5 3.6-2.5 7.5-3.2 11.5-1.3 7.9-1.2 16.1-.2 24.3-2.3-7.9-3.2-16.3-2.3-24.6.4-4.2 1.4-8.3 2.9-12.3s3.7-7.8 6.7-10.9c3-3.1 7.1-5.5 11.6-6.1 4.5-.5 9 .8 12.7 3 1.8 1.1 3.5 2.4 5.1 3.9 1.5 1.5 2.9 3.1 4.1 4.8 2.4 3.3 4.3 7 5.6 10.9z"/><path class="st13" d="M362.5 230.6c1.8-.3 3.7-.6 5.5-.8l5.4-.7 5.4-.7c1.8-.2 3.6-.5 5.5-.5-1.7.7-3.5 1.3-5.3 1.8-1.8.5-3.6.8-5.4 1.1-1.8.2-3.7.4-5.5.4-1.9-.1-3.8-.2-5.6-.6zM469.3 232.2c1.7.2 3.4.5 5 .8 1.7.3 3.3.6 4.9.8 1.6.3 3.3.4 5 .7 1.7.2 3.3.4 5 .8-1.7.3-3.4.5-5.1.5-1.7 0-3.4-.1-5.1-.3-1.7-.3-3.4-.6-5-1.2s-3.2-1.3-4.7-2.1z"/><path class="st14" d="M382.5 215.9c-4.6-2.5-9.3-4.8-14.1-6.5l-1.8-.6-1.8-.6c-1.2-.4-2.5-.7-3.7-1-2.5-.6-5-1.1-7.5-1.5-5.1-.8-10.2-1.3-15.4-1.6-5.2-.4-10.4-.6-15.7-1.1 5.2-.9 10.5-1.3 15.7-1.5 5.3-.1 10.6.1 15.9.9 2.6.5 5.3 1 7.8 1.8 1.3.4 2.6.8 3.8 1.3l1.9.7 1.8.8c4.8 2.3 9.3 5.3 13.1 8.9zM456.5 216.4c1.7-1.9 3.6-3.5 5.7-5 2.1-1.4 4.3-2.6 6.7-3.6 2.3-1 4.8-1.8 7.2-2.5 1.2-.3 2.5-.6 3.7-.9l3.7-.7c5-.8 10-1.2 14.9-1.3 5-.1 10 .1 14.9.7-4.9.8-9.9 1.3-14.8 1.9-4.9.6-9.8 1.2-14.6 2l-3.6.6-3.6.7c-1.2.3-2.4.5-3.5.9l-1.7.5c-.6.1-1.2.3-1.7.5l-1.7.6-1.7.6c-1.2.4-2.2.9-3.4 1.4-2.3 1.1-4.4 2.3-6.5 3.6z"/><path class="st13" d="M477.9 234.4c-7.6 4.3-15.9 7.2-24.4 9.4-4.2 1.1-8.6 1.8-13 2.4l-3.3.3-3.3.2c-.6 0-1.1.1-1.7.1h-1.7c-1.1 0-2.3 0-3.4-.1l-3.3-.4-3.3-.6c-1.1-.2-2.2-.4-3.2-.7-1.1-.3-2.2-.5-3.2-.8-2.1-.6-4.2-1.2-6.3-1.9-2.1-.7-4.1-1.4-6.2-2.2-8.1-3.2-16-7-23.5-11.5 8 3.3 16.1 6.4 24.3 9.1 8.2 2.6 16.5 5 24.9 5.7 1.1.2 2.1.1 3.1.2h1.6c.5 0 1.1 0 1.6-.1l3.2-.1 3.2-.3c4.3-.4 8.5-1 12.7-1.8 8.7-1.7 17-3.9 25.2-6.9z"/><path class="st15" d="M682.8 274.9c-7.2-2.9-13.7-4.7-19.9-5.7-36.7-5.6-56.4 22.4-86 59.7-34.5 43.6-51.8 49.6-51.8 49.6s.3 1.9.9 5.3c3.5 20.2 16.4 92.6 25.4 107.4 10.5 17.3 45.1 3.8 64.6-18.8s60.1-39.8 87.1-63.1c27-23.3 30-114.1-20.3-134.4z"/><path class="st1" d="M662.9 269.2c-36.7-5.6-56.4 22.4-86 59.7-34.5 43.6-51.8 49.6-51.8 49.6s.3 1.9.9 5.3c24.6-14.8 46.1-33.9 67.6-54 22.1-21.5 41.5-49 69.3-60.6z"/><path class="st15" d="M682.8 274.9c-7.2-2.9-13.7-4.7-19.9-5.7-27.8 11.6-47.2 39.1-69.4 60.6-21.5 20.1-43 39.2-67.6 54 3.5 20.2 16.4 92.6 25.4 107.4 10.5 17.3 45.1 3.8 64.6-18.8s60.1-39.8 87.1-63.1c27.1-23.3 30.1-114.1-20.2-134.4z"/><path class="st16" d="M476.9 555.4c-14.1-38.4-49-62.5-82.4-50.2-38.8 14.2-41.9 60.2-41.9 60.2s-32.1-33-70.9-18.8c-33.4 12.2-44.5 53.2-30.4 91.6 18.4 50.2 72.3 70.5 157.2 107.8 6.8 3 14.8.1 18.1-6.6 3.5-7.2 6.9-14.2 10.3-20.9 12.2-25 22.9-46.8 30.8-66.6 14.7-36.9 20.1-66.7 9.2-96.5z"/><path d="M376.6 722.6c-4.1-1.6-9.9-8.2-4.9-11.5 32.5-21.4 69-34.7 96.1-59.4 14.7-36.7 20.1-66.6 9.1-96.3-14.1-38.4-49-62.5-82.4-50.2-38.8 14.2-41.9 60.2-41.9 60.2s-32.1-33-70.9-18.8c-33.4 12.2-44.5 53.2-30.4 91.6 18.4 50.2 72.3 70.5 157.2 107.8 6.8 3 14.8.1 18.1-6.6 3.5-7.2 6.9-14.2 10.3-20.9-18.6 9.2-40.4 12-60.3 4.1zM462 551.7v0z" fill="#cd5aad"/><path class="st16" d="M371.6 711.1c-4.9 3.3.8 9.9 4.9 11.5 20 7.9 41.7 5 60.4-4.2 12.2-25 22.9-46.8 30.8-66.6-27.1 24.7-63.6 37.9-96.1 59.3z"/><path class="st18" d="M341.1 295.6c-10.7-1.6-20.1.4-28 4-18.1 8.1-28.4 24.3-28.4 24.3s-10.7-38.1-45.9-43.3c-30.3-4.4-55.5 21.9-60.6 56.8-7 47.7 28.9 86.5 81.7 155.3 70.4-50.7 115.9-77.5 122.9-125.2 0-.2.1-.5.1-.7 4.8-34.7-11.7-66.8-41.8-71.2z"/><path class="st18" d="M332.5 340.5c-4-14.7-9.9-29.2-19.4-40.9-18.1 8.1-28.4 24.3-28.4 24.3s-10.7-38.1-45.9-43.3c-30.3-4.4-55.5 21.9-60.6 56.8-7 47.7 28.9 86.5 81.7 155.3 70.4-50.7 115.9-77.5 122.9-125.2 0-.2.1-.5.1-.7-10.7-3.9-22-6.9-33.2-10.5-7.8-1.9-14.9-8.2-17.2-15.8z"/><path class="st18" d="M341.1 295.6c-10.7-1.6-20.1.4-28 4 9.5 11.7 15.4 26.2 19.4 40.9 2.3 7.7 9.3 13.9 17.2 15.8 11.2 3.5 22.5 6.6 33.2 10.5 4.8-34.7-11.7-66.8-41.8-71.2z"/><path d="M315.3 315.7c.4-.2 21.7-4.7 36.9 10.4 3.6 3.6 15.2-1.1 2.1-11-32.8-24.8-54.4 7.9-39 .6z" fill="#b82e9e"/><path class="st20" d="M614.5 340.9c-36-10.4-62.9 21.6-62.9 21.6s-1.2-8.4-5.7-18.5c-5.6-12.4-16.3-27.5-36.1-33.2-17.2-5-34.1.3-47.5 12-10.7 9.4-19.2 22.9-23.8 38.8-14.1 48.8 17.9 94.5 63.4 173.8 80.7-43 132-64.6 146.1-113.5 10.2-35.8-2.5-72.1-33.5-81z"/><path d="M483.1 339.7c5.9 7.2 9.1 16.6 8.1 26.4 16.8-11.9 35-19.8 54.7-22.2-5.6-12.4-16.3-27.5-36.1-33.2-17.2-5-34.1.3-47.5 12 8.3 3.4 15.7 9.8 20.8 17z" fill="#ad2d7a"/><path class="st20" d="M614.5 340.9c-36-10.4-62.9 21.6-62.9 21.6s-1.2-8.4-5.7-18.5c-19.7 2.4-37.8 10.3-54.7 22.2 1-9.8-2.2-19.2-8.1-26.4-5.1-7.3-12.5-13.7-20.9-17-10.7 9.4-19.2 22.9-23.8 38.8-14.1 48.8 17.9 94.5 63.4 173.8 80.7-43 132-64.6 146.1-113.5 10.3-35.8-2.4-72.1-33.4-81z"/><path d="M493.4 318.5c-28.7 6.4-40.7 41.6-28.1 42.8 10.5 1.1 8.5-15.6-.5-13 2.4 2.9 4.8 5.9 7.2 8.8 9.8-28.2 34.5-41.5 21.4-38.6z" fill="#e35dad"/><path class="st23" d="M671.9 433.1c-8.4-11.5-20.2-20.3-35.2-24.8-13-4-25.1-4.2-36-2.3-15.2 2.6-28 9.2-37 15.3-9.4 6.3-14.8 12-14.8 12s-7.3-54-57.1-69.2c-42.9-13.1-85.1 16.6-100 62.5-8.1 24.8-6.5 55.1 10.5 82.2 18.8 29.9 45.3 53.8 66.4 84.7 2.3 3.5 4.7 6.9 7 10.3 9.6 14.2 18.8 28.3 26.4 43 100.6-26.6 162-77.5 179.7-131.7 3.7-11.4 5.4-22.9 5.3-33.9-.4-18-5.5-34.8-15.2-48.1z"/><path d="M455.2 388.4c10.1-5.5 37.9 4.3 38 4.3 20.9 1.9-3.6-31-35.7-13.8-14.5 7.7-5 11-2.3 9.5z" fill="#d13da3"/><path d="M591.1 469.5c28.2 22.6 64.4 23.3 95.9 11.6-.2-18-5.3-34.8-15-48-8.4-11.5-20.2-20.3-35.2-24.8-13-4-25.1-4.2-36-2.3.1 0 .2.1.3.1-.1 0-.2-.1-.3-.1-15.2 2.6-28 9.2-37 15.3 3.5 18.4 12.4 36.1 27.3 48.2z" fill="#b03c8b"/><path d="M600.7 406c.1 0 .2.1.3.1-.1 0-.2-.1-.3-.1z" fill="#d94eae"/><path d="M621.5 494.2c2-2.5 4-5 5.9-7.6-12.8-2.7-25.2-8.2-36.3-17.1-14.9-12.1-23.8-29.8-27.4-48.2-9.4 6.3-14.8 12-14.8 12s-7.3-54-57.1-69.2c-42.9-13.1-85.1 16.6-100 62.5-8.1 24.8-6.5 55.1 10.5 82.2 18.8 29.9 45.3 53.8 66.4 84.7 2.3 3.5 4.7 6.9 7 10.3 6.3-2.2 12.4-4.8 18.5-7.7 50.9-23.9 91.1-58.4 127.3-101.9z" fill="#c948a2"/><path class="st23" d="M627.4 486.6c-1.9 2.6-3.9 5.1-5.9 7.6-36.2 43.6-76.4 78.1-127.4 101.9-6.1 2.9-12.3 5.4-18.5 7.7 9.6 14.2 18.8 28.3 26.4 43 100.6-26.6 162-77.5 179.7-131.7 3.7-11.4 5.4-22.9 5.3-33.9-19.1 7-39.9 9.5-59.6 5.4z"/><path class="st28" d="M591.5 534.2c-5.4-24.6-18.7-45.1-36-56.7-13.1-8.7-28.5-12.4-44.5-8.9-43.5 9.5-53.5 58-53.5 58s-29.4-39.9-72.8-30.4c-37.4 8.2-55.2 50.2-45.8 93.3 10 45.6 47.7 73.7 107 110.5 2.3 1.4 4.6 2.8 6.9 4.3 8.7 5.4 17.8 10.9 27.4 16.7 12.8 7.8 29.5 4.2 37.9-8.3 45-66.9 76.2-111.7 75.8-157.7-.1-6.9-.8-13.8-2.4-20.8z"/><path d="M591.5 534.2c-5.4-24.6-18.7-45.1-36-56.7-5.6 59.7-33.4 115.1-66.3 167.9-13.2 19.9-27.6 37.9-43.3 54.6 2.3 1.4 4.6 2.8 6.9 4.3 8.7 5.4 17.8 10.9 27.4 16.7 12.8 7.8 29.5 4.2 37.9-8.3 45-66.9 76.2-111.7 75.8-157.7-.1-6.9-.8-13.8-2.4-20.8z" fill="#863175"/><path class="st28" d="M555.5 477.5c-13.1-8.7-28.5-12.4-44.5-8.9-43.5 9.5-53.5 58-53.5 58s-29.4-39.9-72.8-30.4c-37.4 8.2-55.2 50.2-45.8 93.3 10 45.6 47.7 73.7 107 110.5 15.7-16.7 30.2-34.6 43.3-54.6 32.9-52.8 60.7-108.2 66.3-167.9z"/><path class="st30" d="M402.9 566.5v0z"/><path class="st31" d="M533.6 427.9c-14-30.3-38.5-53-71.8-60.9-79-19-134.2 52.9-134.2 52.9s-16.6-89-95.6-108c-68-16.3-130.8 38.6-149.5 116.9-6.4 26.6-6.6 52.4-1.8 78.9 4.2 22.8 12.1 46 23.2 70.4 26.7 58.9 71.6 125 125.6 209.6 4 6.3 12.2 8.2 18.6 4.5 1.8-1.1 3.7-2.2 5.5-3.2C360.7 726 442 682 491.8 629c17.8-19 31.5-39.1 41-61.6 3.8-9.1 6.9-18.5 9.3-28.4 9.5-40 6.1-79.6-8.5-111.1z"/><path class="st30" d="M533.6 427.9c-14-30.3-38.5-53-71.8-60.9-79-19-134.2 52.9-134.2 52.9s-16.6-89-95.6-108c-68-16.3-130.8 38.6-149.5 116.9-6.4 26.6-6.6 52.4-1.8 78.9 31.1 49.7 89.2 51.6 137.3 71.5 31 12.8 51.9 39.2 72 68.3 29.2 41 83.8 25.5 120.3 5.5 71.1-39.2 117.6-112.1 123.9-191.4.8-11.2.5-22.5-.6-33.7z"/><path class="st31" d="M277.9 649.5c-35-59.4-111.1-68.9-174.1-71.4 26.7 58.9 71.6 125 125.6 209.6 4 6.3 12.2 8.2 18.6 4.5 1.8-1.1 3.7-2.2 5.5-3.2 4.3-4.4 8.6-9 12.8-13.7 31.4-34.6 35.5-85.5 11.6-125.8z"/><path d="M532.7 567.4c3.8-9.1 6.9-18.5 9.3-28.4 9.6-39.9 6.2-79.6-8.4-111.1 1.1 11.2 1.4 22.5.6 33.7-6.4 79.3-52.9 152.2-123.9 191.4-36.5 20-91.1 35.5-120.3-5.5-20-29.2-41-55.6-72-68.3-48.2-20-106.3-21.9-137.3-71.5 4.2 22.8 12.1 46 23.2 70.4 62.9 2.6 139.1 12 174.1 71.4 23.8 40.3 19.7 91.2-11.5 125.7-4.2 4.7-8.5 9.2-12.8 13.7C360.7 726 442 682 491.8 629c-3.2-5.8-6-11.7-7.5-18.1-6.4-29.8 21.9-40.5 48.4-43.5z" fill="#d03592"/><path class="st31" d="M484.2 610.9c1.5 6.4 4.3 12.3 7.5 18.1 17.8-19 31.5-39.1 41-61.6-26.5 3-54.8 13.7-48.5 43.5z"/><path class="st33" d="M249.8 342.1c-4.6-12.9-34.3-19.2-65.8-8-31.5 11.1-52.8 35.4-48.2 48.4 4.6 12.9 33.8 14.4 65.3 3.3 31.5-11.3 53.3-30.8 48.7-43.7zM431.1 411.5c16.9-2.5 27.9-11.7 26.7-19.7-1.2-8-16.2-11.1-33.1-8.6-16.9 2.5-32.2 12-31 19.9s20.5 10.9 37.4 8.4z"/><path class="st0" d="M208.1 658.1c-3.2-5.5-8.1-11-14-16.6-30.1-27.9-87.9-56-101.1-90.1 0 0-11.7 13.1-23.3 33.3-16.5 28.7-32.8 71.8-14.8 111.5 25.2 55.5 58.6 67.4 132 57.5 6.2-.8 12.7-1.8 19.6-3-24.2-30.6 19.2-62.3 1.6-92.6zm-31.4 45.8h-.9.9zm3 1.5c-.1-.2-.3-.3-.5-.5l.5.5zm-.6-.6c-.4-.3-.9-.6-1.4-.7.5.2 1 .4 1.4.7zm-1.6-.7c-.2-.1-.5-.1-.7-.1.3 0 .5 0 .7.1zm3.2 3.4c.1.4.2.7.3 1.1-.1-.4-.2-.7-.3-1.1zm-.9-2c.2.2.3.5.5.8-.2-.3-.3-.5-.5-.8zm.5 1c.1.2.2.5.3.8-.1-.3-.2-.6-.3-.8z"/><path class="st0" d="M194 641.6c-30.1-27.9-87.9-56-101.1-90.1 0 0-11.7 13.1-23.3 33.3-.2 1.1-.4 2.1-.5 3.2 44.1 2.1 79.4 38.1 121.7 52.5 1.1.3 2.2.7 3.2 1.1z"/><path class="st1" d="M208.1 658.1c-3.2-5.5-8.1-11-14-16.6-1.1-.4-2.1-.8-3.2-1.1-42.3-14.4-77.6-50.4-121.7-52.5-2.8 18.8-2.6 37.9 3.4 56.6 11.5 38.6 48.5 64.9 87.1 64.1 6.6 0 19.7-10.7 21.4 0 2.2 14.2 2.9 30.3 5.9 45.1 6.2-.8 12.7-1.8 19.6-3-24.3-30.6 19.1-62.3 1.5-92.6z"/><path class="st0" d="M181 708.7c-.6-3.7-2.5-4.8-5.1-4.7.2-2.4.4-4.8.5-7.3V695c.2-10.2-.8-20.8-3.4-30.6-1.9-7.4-11.7-5-12.5 1.7-1 8.8-1.7 17.6-2.9 26.3-.5 4.1-1.1 8.2-2.1 12.2-.3 1.3-.6 2.7-1 4.1-36.8-1.4-71.1-27.1-82.1-64-6.3-19.8-6.2-40-2.8-59.8-16.5 28.7-32.8 71.8-14.8 111.5 25.2 55.5 58.6 67.4 132 57.5-2.9-15-3.7-31.1-5.8-45.2z"/><path class="st1" d="M89.7 693.1h.8-.8z"/><path class="st34" d="M250.5 638.5c-.2-.2-.4-.4-.5-.6.1.2.3.4.5.6zM256.5 646.7c-.4-.5-.7-1.1-1.1-1.6.4.6.8 1.1 1.1 1.6zM254.9 644.4c-.5-.8-1.1-1.5-1.6-2.3.5.8 1.1 1.5 1.6 2.3zM251.9 640.3c-.1-.2-.3-.4-.4-.6.1.2.3.4.4.6zM242.7 630.2l-.2-.2.2.2zM239.1 627.1l-.1-.1s.1 0 .1.1zM247.6 635.2l-.6-.6c.2.1.4.3.6.6zM249.1 636.8l-.6-.6.6.6zM246 633.5c-.2-.2-.4-.4-.5-.6.2.2.4.4.5.6zM267 667.2c-.1-.2-.2-.4-.2-.6 0 .1.1.3.2.6zM266.1 664.9c-.1-.2-.2-.5-.3-.7.1.2.2.4.3.7zM267.7 669.1c0-.1 0-.1-.1-.2.1.1.1.1.1.2zM258.1 649.1c-.3-.5-.7-1.1-1-1.6.3.6.6 1.1 1 1.6zM263.6 659.2c-.2-.4-.3-.7-.5-1.1.1.3.3.7.5 1.1zM262.4 656.9l-.6-1.2.6 1.2zM259.9 652.2c-.4-.8-.9-1.5-1.3-2.2.4.7.9 1.4 1.3 2.2zM261.2 654.5c-.3-.5-.6-1-.8-1.5.2.5.5 1 .8 1.5zM234 623.1c-.1-.1-.2-.1-.3-.2.1 0 .2.1.3.2zM235.8 624.4c-.1-.1-.2-.2-.3-.2 0 0 .1.1.3.2zM244 631.4c.2.1.3.3.5.4-.2-.1-.4-.2-.5-.4zM232.2 621.8c-.1-.1-.2-.1-.2-.2 0 .1.1.2.2.2z"/><g><path class="st34" d="M280 669c-.8 1.3-1.8 2.4-3 3.3-2.1 1.7-4.5 2.7-7.2 3.1 0-.1 0-.1-.1-.2-3.4-11.5-8.7-22.6-16.4-33.1-7.6-10.3-16.7-18-26.8-23.9.9-1.7 2.2-3.2 3.7-4.4l1.2-.9c-37.9-20.1-86.3-24.1-108.5-25.4.9 1.8 7 6.8 14.5 12.5 12.4 9.4 28.6 20.8 31.7 23.1 13.6 10.7 15.5 18.3 14.4 75-.1 7.3-.3 15.1-.3 23 0 28.4 6.6 59.9 34.9 59.9 10.9 0 40.3-20.7 55.7-50.2 5.8-11.2 9.6-23.6 9.6-36.7-.1-9.1-1.3-17.5-3.4-25.1z"/><path class="st15" d="M253.3 642.1c-27.1-36.6-72.7-40.8-115.9-42 12.4 9.4 28.6 20.8 31.7 23.1 13.6 10.7 15.5 18.3 14.4 75-.1 7.3-.3 15.1-.3 23 0 28.4 6.6 59.9 34.9 59.9 10.9 0 40.3-20.7 55.7-50.2 3-31.2-.8-62-20.5-88.8z"/><path class="st34" d="M230.2 613.8l1.2-.9c-37.9-20.1-86.3-24.1-108.5-25.4.9 1.8 7 6.8 14.5 12.5 31.1.9 63.3 3.3 89.1 18.2.9-1.7 2.1-3.1 3.7-4.4zM283.3 694.1c0-9.2-1.2-17.5-3.3-25.1-.8 1.3-1.8 2.4-3 3.3-2.1 1.7-4.5 2.7-7.2 3.1 0-.1 0-.1-.1-.2 5.3 17.9 5.9 36.7 4 55.6 5.8-11.2 9.6-23.6 9.6-36.7z"/></g><path class="st34" d="M237.5 625.7c-.1-.1-.2-.1-.3-.2.1 0 .2.1.3.2zM230.2 620.5z"/><path class="st35" d="M261.8 655.7c-.2-.4-.4-.8-.6-1.1.2.3.4.7.6 1.1zM226.5 618.2c1.3.7 2.5 1.5 3.7 2.3-1.2-.8-2.5-1.5-3.7-2.3zM260.4 653c-.2-.3-.3-.6-.5-.8.1.3.3.5.5.8zM265.8 664.2c-.7-1.7-1.5-3.4-2.2-5 .7 1.6 1.5 3.3 2.2 5zM263 658.1l-.6-1.2.6 1.2zM266.7 666.5c-.2-.6-.4-1.1-.7-1.6.3.5.5 1.1.7 1.6zM269.7 675.2zM267.6 668.9c-.2-.6-.4-1.2-.7-1.8.3.6.5 1.2.7 1.8zM244.4 631.9l1.1 1.1c-.3-.4-.7-.8-1.1-1.1zM258.6 649.9c-.2-.3-.3-.5-.5-.8.1.3.3.6.5.8zM248.5 636.2c-.3-.3-.6-.7-.9-1 .3.3.6.6.9 1zM237.2 625.5c-.5-.4-.9-.7-1.4-1.1.4.3.9.7 1.4 1.1zM247 634.5c-.3-.3-.6-.7-1-1l1 1zM250 637.9c-.3-.4-.6-.7-.9-1.1.3.4.6.7.9 1.1zM242.4 630c-1.1-1-2.2-2-3.3-2.9 1.1.9 2.2 1.9 3.3 2.9zM239 627c-.5-.4-1-.8-1.6-1.3.6.4 1.1.8 1.6 1.3zM244 631.4l-1.3-1.3c.4.5.8.9 1.3 1.3zM255.4 645.1c-.2-.2-.3-.5-.5-.7.2.2.4.5.5.7zM257.1 647.6l-.6-.9.6.9zM235.4 624.1c-.5-.4-.9-.7-1.4-1 .5.3 1 .7 1.4 1zM253.3 642.1c-.5-.6-.9-1.2-1.4-1.8.5.6.9 1.2 1.4 1.8zM231.9 621.7c-.6-.4-1.1-.8-1.7-1.1.6.3 1.2.7 1.7 1.1zM233.7 622.9c-.5-.4-1-.7-1.5-1 .5.3 1 .6 1.5 1zM251.5 639.7c-.3-.4-.6-.8-1-1.2.3.4.6.8 1 1.2z"/><g><path class="st36" d="M226.5 618.2c-5.3 9.4-1.9 25.6 9.1 39.2 10.2 12.8 24 19.6 34.2 17.9 2.7-.4 5.1-1.5 7.2-3.1 1.2-1 2.2-2.1 3-3.3-7.3-26.3-26.1-44-48.6-56l-1.2.9c-1.6 1.3-2.8 2.7-3.7 4.4"/><path d="M226.5 618.2c-5.3 9.4-1.9 25.6 9.1 39.2 10.2 12.8 24 19.6 34.2 17.9-3.4-11.6-8.7-22.8-16.5-33.3-7.6-10.2-16.7-17.9-26.8-23.8z" fill="#9ac6c9"/><path class="st36" d="M277 672.3c1.2-1 2.2-2.1 3-3.3-7.3-26.3-26.1-44-48.6-56l-1.2.9c-1.5 1.2-2.7 2.7-3.7 4.4 1.3.7 2.5 1.5 3.7 2.3h.1c.6.4 1.1.7 1.7 1.1.1.1.2.1.2.2.5.3 1 .7 1.5 1 .1.1.2.1.3.2.5.3 1 .7 1.4 1 .1.1.2.2.3.2.5.4 1 .7 1.4 1.1.1.1.2.1.3.2.5.4 1 .8 1.6 1.3l.1.1c1.1.9 2.2 1.9 3.3 2.9l.2.2c.4.4.9.8 1.3 1.3.2.1.3.3.5.4l1.1 1.1c.2.2.4.4.5.6l1 1 .6.6c.3.3.6.7.9 1l.6.6c.3.4.6.7.9 1.1.2.2.4.4.5.6.3.4.6.8 1 1.2.1.2.3.4.4.6.5.6.9 1.2 1.4 1.8.6.8 1.1 1.5 1.6 2.3.2.2.3.5.5.7.4.5.7 1.1 1.1 1.6l.6.9c.3.5.7 1 1 1.6.2.3.3.5.5.8.5.7.9 1.5 1.3 2.2.2.3.3.6.5.8.3.5.6 1 .8 1.5.2.4.4.8.6 1.1l.6 1.2.6 1.2c.2.4.3.7.5 1.1.8 1.7 1.5 3.3 2.2 5 .1.2.2.5.3.7.2.5.4 1.1.7 1.6.1.2.2.4.2.6.2.6.4 1.2.7 1.8 0 .1 0 .1.1.2.7 2 1.4 4.1 2 6.1 0 .1 0 .1.1.2 2.7-.2 5.1-1.2 7.2-2.9z"/></g><g><path class="st0" d="M679 272.5s-12.9-4.1-28.3-1.8-33.4 10.9-43.5 36.4c-20.1 51-59.2 118.3 6.3 154.8 65.5 36.5 51 1.9 51 1.9s5-.3 12.7-1.8c24-4.9 73.6-22.5 73.6-85 0-82.4-71.8-104.5-71.8-104.5z"/><path class="st1" d="M617.3 434.6c4.8-2.9 9.7-4 14.7-4 13.6 0 27.5 8.1 41.6 8.1 28.2 0 39.4-36.6 39.4-59.5 0-45-35.2-73-62.2-108.5-15.4 2.3-33.4 10.9-43.5 36.4-20.1 51-59.2 118.3 6.3 154.8 65.5 36.5 51 1.9 51 1.9s5-.3 12.7-1.8c-28.9-9.9-42.5-9.6-60-27.4z"/><path class="st0" d="M673.5 438.7c-14 0-28-8.1-41.6-8.1-4.9 0-9.8 1.1-14.7 4 17.5 17.8 31.1 17.5 59.9 27.5 24-4.9 73.6-22.5 73.6-85 0-82.4-71.7-104.5-71.7-104.5s-12.9-4.1-28.3-1.8c27 35.5 62.2 63.5 62.2 108.5 0 22.8-11.2 59.4-39.4 59.4z"/></g><g><path class="st0" d="M730.8 594.5c-7.9-38.7-24.2-72.1-48.6-81.4 0 0-9.1 19.1-11.7 24-7.6 14.5-18.3 34.1-68.3 37.2-11.7.7-22.5.9-32.4 1.1-46 .9-72.5-.4-76.9 18.5-5.4 22.9 12.8 27.7 18.2 31.7 0 0-8.1 107.9 128.9 105.9 84.3-1.3 103.4-74.9 90.8-137z"/><path class="st1" d="M514.6 588.5c-1.4 14.3 13.4 11.5 27.1 18.2-2.5 12.9-6 21.3-6 32 0 27.6 32.4 52.7 72.3 52.7 53.5 0 106.7-43 122.7-96.9-7.9-38.7-24.2-72.1-48.6-81.4 0 0-9.1 19.1-11.7 24-7.6 14.5-18.3 34.1-68.3 37.2-11.7.7-22.5.9-32.4 1.1-30.4 3-53 3.5-55.1 13.1z"/><path class="st0" d="M608.1 691.4c-39.9 0-72.3-25.1-72.3-52.7 0-10.7 3.4-19.1 6-32-13.8-6.8-28.5-4-27.1-18.2 2.1-9.6 24.7-10 55.2-13.1-46 .9-72.5-.4-76.9 18.5-5.4 22.9 12.8 27.7 18.2 31.7 0 0-8.1 107.9 128.9 105.9 84.4-1.2 103.4-74.9 90.8-137-16.1 53.9-69.3 96.9-122.8 96.9z"/></g></svg>